<mxfile host="app.diagrams.net" modified="2023-07-18T10:13:31.066Z" agent="Mozilla/5.0 (Windows NT 10.0; Win64; x64) AppleWebKit/537.36 (KHTML, like Gecko) Chrome/114.0.0.0 Safari/537.36" etag="ZMng8x9OSqMuFNQrCtwM" version="21.6.2" type="device">
  <diagram id="C5RBs43oDa-KdzZeNtuy" name="Page-1">
    <mxGraphModel dx="1877" dy="1718" grid="1" gridSize="10" guides="1" tooltips="1" connect="1" arrows="1" fold="1" page="1" pageScale="1" pageWidth="827" pageHeight="1169" math="0" shadow="0">
      <root>
        <mxCell id="WIyWlLk6GJQsqaUBKTNV-0" />
        <mxCell id="WIyWlLk6GJQsqaUBKTNV-1" parent="WIyWlLk6GJQsqaUBKTNV-0" />
        <mxCell id="oHqSOorZcruI9NcLSi8c-12" value="workflow&lt;br&gt;&lt;br&gt;1. Wait until ground detected&lt;br&gt;2. return Idle ID" style="rounded=0;whiteSpace=wrap;html=1;" parent="WIyWlLk6GJQsqaUBKTNV-1" vertex="1">
          <mxGeometry x="390" y="350" width="100" height="100" as="geometry" />
        </mxCell>
        <mxCell id="oHqSOorZcruI9NcLSi8c-13" value="workflow" style="rounded=0;whiteSpace=wrap;html=1;" parent="WIyWlLk6GJQsqaUBKTNV-1" vertex="1">
          <mxGeometry x="510" y="350" width="100" height="100" as="geometry" />
        </mxCell>
        <mxCell id="oHqSOorZcruI9NcLSi8c-11" value="workflow&lt;br&gt;&lt;br&gt;1.Add Impulse&lt;br&gt;2.WaitUntil Velocity &amp;lt; 0&lt;br&gt;3. return Fall ID" style="rounded=0;whiteSpace=wrap;html=1;" parent="WIyWlLk6GJQsqaUBKTNV-1" vertex="1">
          <mxGeometry x="270" y="350" width="100" height="100" as="geometry" />
        </mxCell>
        <mxCell id="oHqSOorZcruI9NcLSi8c-10" value="workflow" style="rounded=0;whiteSpace=wrap;html=1;" parent="WIyWlLk6GJQsqaUBKTNV-1" vertex="1">
          <mxGeometry x="150" y="350" width="100" height="100" as="geometry" />
        </mxCell>
        <mxCell id="oHqSOorZcruI9NcLSi8c-8" value="workflow" style="rounded=0;whiteSpace=wrap;html=1;" parent="WIyWlLk6GJQsqaUBKTNV-1" vertex="1">
          <mxGeometry x="30" y="350" width="100" height="100" as="geometry" />
        </mxCell>
        <mxCell id="oHqSOorZcruI9NcLSi8c-0" value="FSM" style="rounded=1;whiteSpace=wrap;html=1;fillColor=#0050ef;fontColor=#ffffff;strokeColor=#001DBC;fontSize=20;" parent="WIyWlLk6GJQsqaUBKTNV-1" vertex="1">
          <mxGeometry x="20" y="20" width="120" height="60" as="geometry" />
        </mxCell>
        <mxCell id="oHqSOorZcruI9NcLSi8c-1" value="Finite State Machine&lt;br&gt;특정 상태에서 특정 로직을 반복수행하는 기계" style="text;html=1;strokeColor=none;fillColor=none;align=left;verticalAlign=middle;whiteSpace=wrap;rounded=0;" parent="WIyWlLk6GJQsqaUBKTNV-1" vertex="1">
          <mxGeometry x="160" y="20" width="200" height="60" as="geometry" />
        </mxCell>
        <mxCell id="oHqSOorZcruI9NcLSi8c-14" style="edgeStyle=orthogonalEdgeStyle;rounded=0;orthogonalLoop=1;jettySize=auto;html=1;entryX=0.5;entryY=0;entryDx=0;entryDy=0;" parent="WIyWlLk6GJQsqaUBKTNV-1" source="oHqSOorZcruI9NcLSi8c-2" target="oHqSOorZcruI9NcLSi8c-3" edge="1">
          <mxGeometry relative="1" as="geometry">
            <Array as="points">
              <mxPoint x="320" y="250" />
              <mxPoint x="80" y="250" />
            </Array>
          </mxGeometry>
        </mxCell>
        <mxCell id="oHqSOorZcruI9NcLSi8c-2" value="Machine" style="rounded=0;whiteSpace=wrap;html=1;" parent="WIyWlLk6GJQsqaUBKTNV-1" vertex="1">
          <mxGeometry x="280" y="120" width="80" height="40" as="geometry" />
        </mxCell>
        <mxCell id="oHqSOorZcruI9NcLSi8c-3" value="Idle" style="rounded=0;whiteSpace=wrap;html=1;" parent="WIyWlLk6GJQsqaUBKTNV-1" vertex="1">
          <mxGeometry x="40" y="320" width="80" height="40" as="geometry" />
        </mxCell>
        <mxCell id="oHqSOorZcruI9NcLSi8c-4" value="Move" style="rounded=0;whiteSpace=wrap;html=1;" parent="WIyWlLk6GJQsqaUBKTNV-1" vertex="1">
          <mxGeometry x="160" y="320" width="80" height="40" as="geometry" />
        </mxCell>
        <mxCell id="oHqSOorZcruI9NcLSi8c-5" value="Jump" style="rounded=0;whiteSpace=wrap;html=1;" parent="WIyWlLk6GJQsqaUBKTNV-1" vertex="1">
          <mxGeometry x="280" y="320" width="80" height="40" as="geometry" />
        </mxCell>
        <mxCell id="oHqSOorZcruI9NcLSi8c-6" value="Fall" style="rounded=0;whiteSpace=wrap;html=1;" parent="WIyWlLk6GJQsqaUBKTNV-1" vertex="1">
          <mxGeometry x="400" y="320" width="80" height="40" as="geometry" />
        </mxCell>
        <mxCell id="oHqSOorZcruI9NcLSi8c-7" value="Attack" style="rounded=0;whiteSpace=wrap;html=1;" parent="WIyWlLk6GJQsqaUBKTNV-1" vertex="1">
          <mxGeometry x="520" y="320" width="80" height="40" as="geometry" />
        </mxCell>
        <mxCell id="oHqSOorZcruI9NcLSi8c-15" value="Idle" style="rounded=0;whiteSpace=wrap;html=1;" parent="WIyWlLk6GJQsqaUBKTNV-1" vertex="1">
          <mxGeometry x="200" y="520" width="80" height="40" as="geometry" />
        </mxCell>
        <mxCell id="oHqSOorZcruI9NcLSi8c-20" style="edgeStyle=orthogonalEdgeStyle;rounded=0;orthogonalLoop=1;jettySize=auto;html=1;" parent="WIyWlLk6GJQsqaUBKTNV-1" source="oHqSOorZcruI9NcLSi8c-16" target="oHqSOorZcruI9NcLSi8c-19" edge="1">
          <mxGeometry relative="1" as="geometry" />
        </mxCell>
        <mxCell id="oHqSOorZcruI9NcLSi8c-16" value="Jump" style="rounded=0;whiteSpace=wrap;html=1;" parent="WIyWlLk6GJQsqaUBKTNV-1" vertex="1">
          <mxGeometry x="80" y="640" width="80" height="40" as="geometry" />
        </mxCell>
        <mxCell id="oHqSOorZcruI9NcLSi8c-17" value="" style="endArrow=classic;html=1;rounded=0;" parent="WIyWlLk6GJQsqaUBKTNV-1" source="oHqSOorZcruI9NcLSi8c-15" target="oHqSOorZcruI9NcLSi8c-16" edge="1">
          <mxGeometry width="50" height="50" relative="1" as="geometry">
            <mxPoint x="400" y="600" as="sourcePoint" />
            <mxPoint x="450" y="550" as="targetPoint" />
          </mxGeometry>
        </mxCell>
        <mxCell id="oHqSOorZcruI9NcLSi8c-18" value="Transition&lt;br&gt;&lt;br&gt;Space bar&lt;br&gt;Ground Detected" style="text;html=1;strokeColor=#666666;fillColor=#f5f5f5;align=center;verticalAlign=middle;whiteSpace=wrap;rounded=0;fontColor=#333333;" parent="WIyWlLk6GJQsqaUBKTNV-1" vertex="1">
          <mxGeometry x="30" y="530" width="140" height="75" as="geometry" />
        </mxCell>
        <mxCell id="oHqSOorZcruI9NcLSi8c-25" style="edgeStyle=orthogonalEdgeStyle;rounded=0;orthogonalLoop=1;jettySize=auto;html=1;entryX=0.5;entryY=1;entryDx=0;entryDy=0;" parent="WIyWlLk6GJQsqaUBKTNV-1" source="oHqSOorZcruI9NcLSi8c-19" target="oHqSOorZcruI9NcLSi8c-15" edge="1">
          <mxGeometry relative="1" as="geometry" />
        </mxCell>
        <mxCell id="oHqSOorZcruI9NcLSi8c-19" value="Fall" style="rounded=0;whiteSpace=wrap;html=1;" parent="WIyWlLk6GJQsqaUBKTNV-1" vertex="1">
          <mxGeometry x="80" y="760" width="80" height="40" as="geometry" />
        </mxCell>
        <mxCell id="oHqSOorZcruI9NcLSi8c-21" value="Transition&lt;br&gt;&lt;br&gt;Velocity &amp;lt; 0" style="text;html=1;strokeColor=#666666;fillColor=#f5f5f5;align=center;verticalAlign=middle;whiteSpace=wrap;rounded=0;fontColor=#333333;" parent="WIyWlLk6GJQsqaUBKTNV-1" vertex="1">
          <mxGeometry x="-70" y="680" width="140" height="75" as="geometry" />
        </mxCell>
        <mxCell id="oHqSOorZcruI9NcLSi8c-26" value="Transition&lt;br&gt;&lt;br&gt;Ground Detected" style="text;html=1;strokeColor=#666666;fillColor=#f5f5f5;align=center;verticalAlign=middle;whiteSpace=wrap;rounded=0;fontColor=#333333;" parent="WIyWlLk6GJQsqaUBKTNV-1" vertex="1">
          <mxGeometry x="250" y="650" width="140" height="75" as="geometry" />
        </mxCell>
        <mxCell id="oHqSOorZcruI9NcLSi8c-27" value="StateMachine" style="swimlane;fontStyle=1;align=center;verticalAlign=top;childLayout=stackLayout;horizontal=1;startSize=26;horizontalStack=0;resizeParent=1;resizeParentMax=0;resizeLast=0;collapsible=1;marginBottom=0;whiteSpace=wrap;html=1;" parent="WIyWlLk6GJQsqaUBKTNV-1" vertex="1">
          <mxGeometry x="565" y="-20" width="375" height="138" as="geometry" />
        </mxCell>
        <mxCell id="oHqSOorZcruI9NcLSi8c-28" value="- states : Dictionary&amp;lt;StateType, IStateEnumerator&amp;lt;StateType&amp;gt;&amp;gt;" style="text;strokeColor=none;fillColor=none;align=left;verticalAlign=top;spacingLeft=4;spacingRight=4;overflow=hidden;rotatable=0;points=[[0,0.5],[1,0.5]];portConstraint=eastwest;whiteSpace=wrap;html=1;" parent="oHqSOorZcruI9NcLSi8c-27" vertex="1">
          <mxGeometry y="26" width="375" height="26" as="geometry" />
        </mxCell>
        <mxCell id="cSm7JfzKfMOA9RNislUJ-24" value="- current : IStateEnumerator&amp;lt;StateType&amp;gt;" style="text;strokeColor=none;fillColor=none;align=left;verticalAlign=top;spacingLeft=4;spacingRight=4;overflow=hidden;rotatable=0;points=[[0,0.5],[1,0.5]];portConstraint=eastwest;whiteSpace=wrap;html=1;" parent="oHqSOorZcruI9NcLSi8c-27" vertex="1">
          <mxGeometry y="52" width="375" height="26" as="geometry" />
        </mxCell>
        <mxCell id="oHqSOorZcruI9NcLSi8c-30" value="- currentType : StateType" style="text;strokeColor=none;fillColor=none;align=left;verticalAlign=top;spacingLeft=4;spacingRight=4;overflow=hidden;rotatable=0;points=[[0,0.5],[1,0.5]];portConstraint=eastwest;whiteSpace=wrap;html=1;" parent="oHqSOorZcruI9NcLSi8c-27" vertex="1">
          <mxGeometry y="78" width="375" height="26" as="geometry" />
        </mxCell>
        <mxCell id="oHqSOorZcruI9NcLSi8c-29" value="" style="line;strokeWidth=1;fillColor=none;align=left;verticalAlign=middle;spacingTop=-1;spacingLeft=3;spacingRight=3;rotatable=0;labelPosition=right;points=[];portConstraint=eastwest;strokeColor=inherit;" parent="oHqSOorZcruI9NcLSi8c-27" vertex="1">
          <mxGeometry y="104" width="375" height="8" as="geometry" />
        </mxCell>
        <mxCell id="oHqSOorZcruI9NcLSi8c-47" value="+ ChangeState(newState : StateType) : bool" style="text;strokeColor=none;fillColor=none;align=left;verticalAlign=top;spacingLeft=4;spacingRight=4;overflow=hidden;rotatable=0;points=[[0,0.5],[1,0.5]];portConstraint=eastwest;whiteSpace=wrap;html=1;" parent="oHqSOorZcruI9NcLSi8c-27" vertex="1">
          <mxGeometry y="112" width="375" height="26" as="geometry" />
        </mxCell>
        <mxCell id="oHqSOorZcruI9NcLSi8c-35" value="«interface»&lt;br&gt;&lt;b&gt;IStateEnumerator&amp;lt;T&amp;gt;&lt;br&gt;where T : Enumerator&lt;br&gt;&lt;br&gt;{get, set} Current : Step&lt;br&gt;MoveNext() : T&lt;br&gt;Reset() : void&lt;br&gt;&lt;/b&gt;" style="html=1;whiteSpace=wrap;" parent="WIyWlLk6GJQsqaUBKTNV-1" vertex="1">
          <mxGeometry x="650" y="194" width="160" height="100" as="geometry" />
        </mxCell>
        <mxCell id="oHqSOorZcruI9NcLSi8c-36" value="" style="endArrow=block;endSize=16;endFill=0;html=1;rounded=0;" parent="WIyWlLk6GJQsqaUBKTNV-1" source="cSm7JfzKfMOA9RNislUJ-0" target="oHqSOorZcruI9NcLSi8c-35" edge="1">
          <mxGeometry width="160" relative="1" as="geometry">
            <mxPoint x="860" y="216.18181818181824" as="sourcePoint" />
            <mxPoint x="760" y="300" as="targetPoint" />
          </mxGeometry>
        </mxCell>
        <mxCell id="oHqSOorZcruI9NcLSi8c-45" value="«enum»&lt;br&gt;&lt;b&gt;StateType&lt;br&gt;&lt;br&gt;Idle,&lt;br&gt;Move,&lt;br&gt;Jump,&lt;br&gt;Fall,&lt;br&gt;Attack&lt;br&gt;&lt;/b&gt;" style="html=1;whiteSpace=wrap;" parent="WIyWlLk6GJQsqaUBKTNV-1" vertex="1">
          <mxGeometry x="490" y="150" width="110" height="125" as="geometry" />
        </mxCell>
        <mxCell id="cSm7JfzKfMOA9RNislUJ-0" value="State" style="swimlane;fontStyle=1;align=center;verticalAlign=top;childLayout=stackLayout;horizontal=1;startSize=26;horizontalStack=0;resizeParent=1;resizeParentMax=0;resizeLast=0;collapsible=1;marginBottom=0;whiteSpace=wrap;html=1;" parent="WIyWlLk6GJQsqaUBKTNV-1" vertex="1">
          <mxGeometry x="880" y="170" width="185" height="164" as="geometry" />
        </mxCell>
        <mxCell id="cSm7JfzKfMOA9RNislUJ-1" value="# machine : StateMachine" style="text;strokeColor=none;fillColor=none;align=left;verticalAlign=top;spacingLeft=4;spacingRight=4;overflow=hidden;rotatable=0;points=[[0,0.5],[1,0.5]];portConstraint=eastwest;whiteSpace=wrap;html=1;" parent="cSm7JfzKfMOA9RNislUJ-0" vertex="1">
          <mxGeometry y="26" width="185" height="26" as="geometry" />
        </mxCell>
        <mxCell id="cSm7JfzKfMOA9RNislUJ-4" value="# transform : Transform" style="text;strokeColor=none;fillColor=none;align=left;verticalAlign=top;spacingLeft=4;spacingRight=4;overflow=hidden;rotatable=0;points=[[0,0.5],[1,0.5]];portConstraint=eastwest;whiteSpace=wrap;html=1;" parent="cSm7JfzKfMOA9RNislUJ-0" vertex="1">
          <mxGeometry y="52" width="185" height="26" as="geometry" />
        </mxCell>
        <mxCell id="cSm7JfzKfMOA9RNislUJ-9" value="# animator : Animator" style="text;strokeColor=none;fillColor=none;align=left;verticalAlign=top;spacingLeft=4;spacingRight=4;overflow=hidden;rotatable=0;points=[[0,0.5],[1,0.5]];portConstraint=eastwest;whiteSpace=wrap;html=1;" parent="cSm7JfzKfMOA9RNislUJ-0" vertex="1">
          <mxGeometry y="78" width="185" height="26" as="geometry" />
        </mxCell>
        <mxCell id="cSm7JfzKfMOA9RNislUJ-10" value="# rigidbody : Rigidbody2D" style="text;strokeColor=none;fillColor=none;align=left;verticalAlign=top;spacingLeft=4;spacingRight=4;overflow=hidden;rotatable=0;points=[[0,0.5],[1,0.5]];portConstraint=eastwest;whiteSpace=wrap;html=1;" parent="cSm7JfzKfMOA9RNislUJ-0" vertex="1">
          <mxGeometry y="104" width="185" height="26" as="geometry" />
        </mxCell>
        <mxCell id="cSm7JfzKfMOA9RNislUJ-11" value="# collider : CapsuleCollider2D" style="text;strokeColor=none;fillColor=none;align=left;verticalAlign=top;spacingLeft=4;spacingRight=4;overflow=hidden;rotatable=0;points=[[0,0.5],[1,0.5]];portConstraint=eastwest;whiteSpace=wrap;html=1;" parent="cSm7JfzKfMOA9RNislUJ-0" vertex="1">
          <mxGeometry y="130" width="185" height="26" as="geometry" />
        </mxCell>
        <mxCell id="cSm7JfzKfMOA9RNislUJ-2" value="" style="line;strokeWidth=1;fillColor=none;align=left;verticalAlign=middle;spacingTop=-1;spacingLeft=3;spacingRight=3;rotatable=0;labelPosition=right;points=[];portConstraint=eastwest;strokeColor=inherit;" parent="cSm7JfzKfMOA9RNislUJ-0" vertex="1">
          <mxGeometry y="156" width="185" height="8" as="geometry" />
        </mxCell>
        <mxCell id="cSm7JfzKfMOA9RNislUJ-5" value="" style="endArrow=open;html=1;endSize=12;startArrow=diamondThin;startSize=14;startFill=0;edgeStyle=orthogonalEdgeStyle;rounded=0;" parent="WIyWlLk6GJQsqaUBKTNV-1" source="oHqSOorZcruI9NcLSi8c-27" target="oHqSOorZcruI9NcLSi8c-35" edge="1">
          <mxGeometry relative="1" as="geometry">
            <mxPoint x="790" y="220" as="sourcePoint" />
            <mxPoint x="950" y="220" as="targetPoint" />
            <Array as="points">
              <mxPoint x="730" y="81" />
            </Array>
          </mxGeometry>
        </mxCell>
        <mxCell id="cSm7JfzKfMOA9RNislUJ-6" value="1" style="edgeLabel;resizable=0;html=1;align=left;verticalAlign=top;" parent="cSm7JfzKfMOA9RNislUJ-5" connectable="0" vertex="1">
          <mxGeometry x="-1" relative="1" as="geometry" />
        </mxCell>
        <mxCell id="cSm7JfzKfMOA9RNislUJ-7" value="n" style="edgeLabel;resizable=0;html=1;align=right;verticalAlign=top;" parent="cSm7JfzKfMOA9RNislUJ-5" connectable="0" vertex="1">
          <mxGeometry x="1" relative="1" as="geometry">
            <mxPoint x="-10" y="-24" as="offset" />
          </mxGeometry>
        </mxCell>
        <mxCell id="cSm7JfzKfMOA9RNislUJ-8" value="«enum»&lt;br&gt;&lt;b&gt;Step&lt;br&gt;&lt;br&gt;None,&lt;br&gt;Start,&lt;br&gt;Casting,&lt;br&gt;DoAction,&lt;br&gt;WaitUntilActionFinished,&lt;br&gt;Finish&lt;br&gt;&lt;/b&gt;" style="html=1;whiteSpace=wrap;" parent="WIyWlLk6GJQsqaUBKTNV-1" vertex="1">
          <mxGeometry x="655" y="317.5" width="155" height="165" as="geometry" />
        </mxCell>
        <mxCell id="cSm7JfzKfMOA9RNislUJ-12" value="StateIdle" style="swimlane;fontStyle=1;align=center;verticalAlign=top;childLayout=stackLayout;horizontal=1;startSize=26;horizontalStack=0;resizeParent=1;resizeParentMax=0;resizeLast=0;collapsible=1;marginBottom=0;whiteSpace=wrap;html=1;" parent="WIyWlLk6GJQsqaUBKTNV-1" vertex="1">
          <mxGeometry x="1110" y="210" width="185" height="34" as="geometry" />
        </mxCell>
        <mxCell id="cSm7JfzKfMOA9RNislUJ-18" value="" style="line;strokeWidth=1;fillColor=none;align=left;verticalAlign=middle;spacingTop=-1;spacingLeft=3;spacingRight=3;rotatable=0;labelPosition=right;points=[];portConstraint=eastwest;strokeColor=inherit;" parent="cSm7JfzKfMOA9RNislUJ-12" vertex="1">
          <mxGeometry y="26" width="185" height="8" as="geometry" />
        </mxCell>
        <mxCell id="cSm7JfzKfMOA9RNislUJ-19" value="StateMove" style="swimlane;fontStyle=1;align=center;verticalAlign=top;childLayout=stackLayout;horizontal=1;startSize=26;horizontalStack=0;resizeParent=1;resizeParentMax=0;resizeLast=0;collapsible=1;marginBottom=0;whiteSpace=wrap;html=1;" parent="WIyWlLk6GJQsqaUBKTNV-1" vertex="1">
          <mxGeometry x="1110" y="244" width="185" height="34" as="geometry" />
        </mxCell>
        <mxCell id="cSm7JfzKfMOA9RNislUJ-20" value="" style="line;strokeWidth=1;fillColor=none;align=left;verticalAlign=middle;spacingTop=-1;spacingLeft=3;spacingRight=3;rotatable=0;labelPosition=right;points=[];portConstraint=eastwest;strokeColor=inherit;" parent="cSm7JfzKfMOA9RNislUJ-19" vertex="1">
          <mxGeometry y="26" width="185" height="8" as="geometry" />
        </mxCell>
        <mxCell id="cSm7JfzKfMOA9RNislUJ-21" value="StateAttack" style="swimlane;fontStyle=1;align=center;verticalAlign=top;childLayout=stackLayout;horizontal=1;startSize=26;horizontalStack=0;resizeParent=1;resizeParentMax=0;resizeLast=0;collapsible=1;marginBottom=0;whiteSpace=wrap;html=1;" parent="WIyWlLk6GJQsqaUBKTNV-1" vertex="1">
          <mxGeometry x="1110" y="278" width="185" height="34" as="geometry" />
        </mxCell>
        <mxCell id="cSm7JfzKfMOA9RNislUJ-22" value="" style="line;strokeWidth=1;fillColor=none;align=left;verticalAlign=middle;spacingTop=-1;spacingLeft=3;spacingRight=3;rotatable=0;labelPosition=right;points=[];portConstraint=eastwest;strokeColor=inherit;" parent="cSm7JfzKfMOA9RNislUJ-21" vertex="1">
          <mxGeometry y="26" width="185" height="8" as="geometry" />
        </mxCell>
        <mxCell id="cSm7JfzKfMOA9RNislUJ-23" value="" style="endArrow=block;endSize=16;endFill=0;html=1;rounded=0;" parent="WIyWlLk6GJQsqaUBKTNV-1" source="cSm7JfzKfMOA9RNislUJ-12" target="cSm7JfzKfMOA9RNislUJ-0" edge="1">
          <mxGeometry width="160" relative="1" as="geometry">
            <mxPoint x="890" y="259" as="sourcePoint" />
            <mxPoint x="820" y="257" as="targetPoint" />
          </mxGeometry>
        </mxCell>
        <mxCell id="grzt_g6H8kbhjjzpWrgn-0" value="AI" style="rounded=1;whiteSpace=wrap;html=1;fillColor=#0050ef;fontColor=#ffffff;strokeColor=#001DBC;" parent="WIyWlLk6GJQsqaUBKTNV-1" vertex="1">
          <mxGeometry x="1360" y="19" width="120" height="60" as="geometry" />
        </mxCell>
        <mxCell id="grzt_g6H8kbhjjzpWrgn-5" style="edgeStyle=orthogonalEdgeStyle;rounded=0;orthogonalLoop=1;jettySize=auto;html=1;" parent="WIyWlLk6GJQsqaUBKTNV-1" source="grzt_g6H8kbhjjzpWrgn-1" target="grzt_g6H8kbhjjzpWrgn-2" edge="1">
          <mxGeometry relative="1" as="geometry">
            <Array as="points">
              <mxPoint x="1878" y="210" />
              <mxPoint x="1748" y="210" />
            </Array>
          </mxGeometry>
        </mxCell>
        <mxCell id="grzt_g6H8kbhjjzpWrgn-7" style="edgeStyle=orthogonalEdgeStyle;rounded=0;orthogonalLoop=1;jettySize=auto;html=1;" parent="WIyWlLk6GJQsqaUBKTNV-1" source="grzt_g6H8kbhjjzpWrgn-1" target="grzt_g6H8kbhjjzpWrgn-3" edge="1">
          <mxGeometry relative="1" as="geometry" />
        </mxCell>
        <mxCell id="grzt_g6H8kbhjjzpWrgn-8" style="edgeStyle=orthogonalEdgeStyle;rounded=0;orthogonalLoop=1;jettySize=auto;html=1;" parent="WIyWlLk6GJQsqaUBKTNV-1" source="grzt_g6H8kbhjjzpWrgn-1" target="grzt_g6H8kbhjjzpWrgn-4" edge="1">
          <mxGeometry relative="1" as="geometry">
            <Array as="points">
              <mxPoint x="1878" y="210" />
              <mxPoint x="2008" y="210" />
            </Array>
          </mxGeometry>
        </mxCell>
        <mxCell id="grzt_g6H8kbhjjzpWrgn-1" value="Think" style="rounded=1;whiteSpace=wrap;html=1;" parent="WIyWlLk6GJQsqaUBKTNV-1" vertex="1">
          <mxGeometry x="1818" y="120" width="120" height="60" as="geometry" />
        </mxCell>
        <mxCell id="grzt_g6H8kbhjjzpWrgn-6" style="edgeStyle=orthogonalEdgeStyle;rounded=0;orthogonalLoop=1;jettySize=auto;html=1;entryX=0.5;entryY=1;entryDx=0;entryDy=0;" parent="WIyWlLk6GJQsqaUBKTNV-1" source="grzt_g6H8kbhjjzpWrgn-2" target="grzt_g6H8kbhjjzpWrgn-1" edge="1">
          <mxGeometry relative="1" as="geometry">
            <Array as="points">
              <mxPoint x="1748" y="210" />
              <mxPoint x="1878" y="210" />
            </Array>
          </mxGeometry>
        </mxCell>
        <mxCell id="grzt_g6H8kbhjjzpWrgn-2" value="MoveLeft" style="rounded=1;whiteSpace=wrap;html=1;" parent="WIyWlLk6GJQsqaUBKTNV-1" vertex="1">
          <mxGeometry x="1688" y="260" width="120" height="60" as="geometry" />
        </mxCell>
        <mxCell id="grzt_g6H8kbhjjzpWrgn-3" value="Idle" style="rounded=1;whiteSpace=wrap;html=1;" parent="WIyWlLk6GJQsqaUBKTNV-1" vertex="1">
          <mxGeometry x="1818" y="260" width="120" height="60" as="geometry" />
        </mxCell>
        <mxCell id="grzt_g6H8kbhjjzpWrgn-4" value="MoveRight" style="rounded=1;whiteSpace=wrap;html=1;" parent="WIyWlLk6GJQsqaUBKTNV-1" vertex="1">
          <mxGeometry x="1948" y="257.5" width="120" height="60" as="geometry" />
        </mxCell>
        <mxCell id="grzt_g6H8kbhjjzpWrgn-15" style="edgeStyle=orthogonalEdgeStyle;rounded=0;orthogonalLoop=1;jettySize=auto;html=1;entryX=0.5;entryY=0;entryDx=0;entryDy=0;" parent="WIyWlLk6GJQsqaUBKTNV-1" source="grzt_g6H8kbhjjzpWrgn-11" target="grzt_g6H8kbhjjzpWrgn-14" edge="1">
          <mxGeometry relative="1" as="geometry" />
        </mxCell>
        <mxCell id="grzt_g6H8kbhjjzpWrgn-11" value="Is Target detected" style="rhombus;whiteSpace=wrap;html=1;rounded=1;" parent="WIyWlLk6GJQsqaUBKTNV-1" vertex="1">
          <mxGeometry x="1410" y="118" width="150" height="80" as="geometry" />
        </mxCell>
        <mxCell id="grzt_g6H8kbhjjzpWrgn-17" style="edgeStyle=orthogonalEdgeStyle;rounded=0;orthogonalLoop=1;jettySize=auto;html=1;entryX=0.5;entryY=0;entryDx=0;entryDy=0;" parent="WIyWlLk6GJQsqaUBKTNV-1" source="grzt_g6H8kbhjjzpWrgn-14" target="grzt_g6H8kbhjjzpWrgn-16" edge="1">
          <mxGeometry relative="1" as="geometry" />
        </mxCell>
        <mxCell id="grzt_g6H8kbhjjzpWrgn-14" value="StartFollow" style="rounded=1;whiteSpace=wrap;html=1;" parent="WIyWlLk6GJQsqaUBKTNV-1" vertex="1">
          <mxGeometry x="1425" y="234" width="120" height="60" as="geometry" />
        </mxCell>
        <mxCell id="grzt_g6H8kbhjjzpWrgn-19" style="edgeStyle=orthogonalEdgeStyle;rounded=0;orthogonalLoop=1;jettySize=auto;html=1;" parent="WIyWlLk6GJQsqaUBKTNV-1" source="grzt_g6H8kbhjjzpWrgn-16" target="grzt_g6H8kbhjjzpWrgn-18" edge="1">
          <mxGeometry relative="1" as="geometry" />
        </mxCell>
        <mxCell id="grzt_g6H8kbhjjzpWrgn-16" value="Follow" style="rounded=1;whiteSpace=wrap;html=1;" parent="WIyWlLk6GJQsqaUBKTNV-1" vertex="1">
          <mxGeometry x="1425" y="334" width="120" height="60" as="geometry" />
        </mxCell>
        <mxCell id="grzt_g6H8kbhjjzpWrgn-23" style="edgeStyle=orthogonalEdgeStyle;rounded=0;orthogonalLoop=1;jettySize=auto;html=1;" parent="WIyWlLk6GJQsqaUBKTNV-1" source="grzt_g6H8kbhjjzpWrgn-18" target="grzt_g6H8kbhjjzpWrgn-21" edge="1">
          <mxGeometry relative="1" as="geometry" />
        </mxCell>
        <mxCell id="grzt_g6H8kbhjjzpWrgn-18" value="Is Target in attack range" style="rhombus;whiteSpace=wrap;html=1;rounded=1;" parent="WIyWlLk6GJQsqaUBKTNV-1" vertex="1">
          <mxGeometry x="1410" y="430" width="150" height="80" as="geometry" />
        </mxCell>
        <mxCell id="grzt_g6H8kbhjjzpWrgn-20" style="edgeStyle=orthogonalEdgeStyle;rounded=0;orthogonalLoop=1;jettySize=auto;html=1;entryX=0.5;entryY=0;entryDx=0;entryDy=0;" parent="WIyWlLk6GJQsqaUBKTNV-1" source="grzt_g6H8kbhjjzpWrgn-21" target="grzt_g6H8kbhjjzpWrgn-22" edge="1">
          <mxGeometry relative="1" as="geometry" />
        </mxCell>
        <mxCell id="grzt_g6H8kbhjjzpWrgn-21" value="StartAttack" style="rounded=1;whiteSpace=wrap;html=1;" parent="WIyWlLk6GJQsqaUBKTNV-1" vertex="1">
          <mxGeometry x="1425" y="540" width="120" height="60" as="geometry" />
        </mxCell>
        <mxCell id="grzt_g6H8kbhjjzpWrgn-24" style="edgeStyle=orthogonalEdgeStyle;rounded=0;orthogonalLoop=1;jettySize=auto;html=1;entryX=0;entryY=0.5;entryDx=0;entryDy=0;" parent="WIyWlLk6GJQsqaUBKTNV-1" source="grzt_g6H8kbhjjzpWrgn-22" target="grzt_g6H8kbhjjzpWrgn-1" edge="1">
          <mxGeometry relative="1" as="geometry">
            <Array as="points">
              <mxPoint x="1650" y="670" />
              <mxPoint x="1650" y="150" />
            </Array>
          </mxGeometry>
        </mxCell>
        <mxCell id="grzt_g6H8kbhjjzpWrgn-22" value="Attack" style="rounded=1;whiteSpace=wrap;html=1;" parent="WIyWlLk6GJQsqaUBKTNV-1" vertex="1">
          <mxGeometry x="1425" y="640" width="120" height="60" as="geometry" />
        </mxCell>
        <mxCell id="7c5YOl922SR2DBsSBu3k-0" value="Character" style="rounded=1;whiteSpace=wrap;html=1;fillColor=#0050ef;fontColor=#ffffff;strokeColor=#001DBC;" parent="WIyWlLk6GJQsqaUBKTNV-1" vertex="1">
          <mxGeometry x="80" y="900" width="120" height="60" as="geometry" />
        </mxCell>
        <mxCell id="7c5YOl922SR2DBsSBu3k-1" value="Character" style="swimlane;fontStyle=1;align=center;verticalAlign=top;childLayout=stackLayout;horizontal=1;startSize=26;horizontalStack=0;resizeParent=1;resizeParentMax=0;resizeLast=0;collapsible=1;marginBottom=0;whiteSpace=wrap;html=1;" parent="WIyWlLk6GJQsqaUBKTNV-1" vertex="1">
          <mxGeometry x="190" y="1170" width="160" height="86" as="geometry" />
        </mxCell>
        <mxCell id="7c5YOl922SR2DBsSBu3k-2" value="+ machine : StateMachine" style="text;strokeColor=none;fillColor=none;align=left;verticalAlign=top;spacingLeft=4;spacingRight=4;overflow=hidden;rotatable=0;points=[[0,0.5],[1,0.5]];portConstraint=eastwest;whiteSpace=wrap;html=1;" parent="7c5YOl922SR2DBsSBu3k-1" vertex="1">
          <mxGeometry y="26" width="160" height="26" as="geometry" />
        </mxCell>
        <mxCell id="7c5YOl922SR2DBsSBu3k-5" value="+ movement : Movement" style="text;strokeColor=none;fillColor=none;align=left;verticalAlign=top;spacingLeft=4;spacingRight=4;overflow=hidden;rotatable=0;points=[[0,0.5],[1,0.5]];portConstraint=eastwest;whiteSpace=wrap;html=1;" parent="7c5YOl922SR2DBsSBu3k-1" vertex="1">
          <mxGeometry y="52" width="160" height="26" as="geometry" />
        </mxCell>
        <mxCell id="7c5YOl922SR2DBsSBu3k-3" value="" style="line;strokeWidth=1;fillColor=none;align=left;verticalAlign=middle;spacingTop=-1;spacingLeft=3;spacingRight=3;rotatable=0;labelPosition=right;points=[];portConstraint=eastwest;strokeColor=inherit;" parent="7c5YOl922SR2DBsSBu3k-1" vertex="1">
          <mxGeometry y="78" width="160" height="8" as="geometry" />
        </mxCell>
        <mxCell id="7c5YOl922SR2DBsSBu3k-6" value="Player" style="swimlane;fontStyle=1;align=center;verticalAlign=top;childLayout=stackLayout;horizontal=1;startSize=26;horizontalStack=0;resizeParent=1;resizeParentMax=0;resizeLast=0;collapsible=1;marginBottom=0;whiteSpace=wrap;html=1;" parent="WIyWlLk6GJQsqaUBKTNV-1" vertex="1">
          <mxGeometry x="100" y="1320" width="160" height="34" as="geometry" />
        </mxCell>
        <mxCell id="7c5YOl922SR2DBsSBu3k-9" value="" style="line;strokeWidth=1;fillColor=none;align=left;verticalAlign=middle;spacingTop=-1;spacingLeft=3;spacingRight=3;rotatable=0;labelPosition=right;points=[];portConstraint=eastwest;strokeColor=inherit;" parent="7c5YOl922SR2DBsSBu3k-6" vertex="1">
          <mxGeometry y="26" width="160" height="8" as="geometry" />
        </mxCell>
        <mxCell id="7c5YOl922SR2DBsSBu3k-10" value="Enemy" style="swimlane;fontStyle=1;align=center;verticalAlign=top;childLayout=stackLayout;horizontal=1;startSize=26;horizontalStack=0;resizeParent=1;resizeParentMax=0;resizeLast=0;collapsible=1;marginBottom=0;whiteSpace=wrap;html=1;" parent="WIyWlLk6GJQsqaUBKTNV-1" vertex="1">
          <mxGeometry x="290" y="1320" width="160" height="34" as="geometry" />
        </mxCell>
        <mxCell id="7c5YOl922SR2DBsSBu3k-11" value="" style="line;strokeWidth=1;fillColor=none;align=left;verticalAlign=middle;spacingTop=-1;spacingLeft=3;spacingRight=3;rotatable=0;labelPosition=right;points=[];portConstraint=eastwest;strokeColor=inherit;" parent="7c5YOl922SR2DBsSBu3k-10" vertex="1">
          <mxGeometry y="26" width="160" height="8" as="geometry" />
        </mxCell>
        <mxCell id="7c5YOl922SR2DBsSBu3k-13" value="DamageableObjects" style="swimlane;fontStyle=1;align=center;verticalAlign=top;childLayout=stackLayout;horizontal=1;startSize=26;horizontalStack=0;resizeParent=1;resizeParentMax=0;resizeLast=0;collapsible=1;marginBottom=0;whiteSpace=wrap;html=1;" parent="WIyWlLk6GJQsqaUBKTNV-1" vertex="1">
          <mxGeometry x="540" y="1170" width="160" height="34" as="geometry" />
        </mxCell>
        <mxCell id="7c5YOl922SR2DBsSBu3k-14" value="" style="line;strokeWidth=1;fillColor=none;align=left;verticalAlign=middle;spacingTop=-1;spacingLeft=3;spacingRight=3;rotatable=0;labelPosition=right;points=[];portConstraint=eastwest;strokeColor=inherit;" parent="7c5YOl922SR2DBsSBu3k-13" vertex="1">
          <mxGeometry y="26" width="160" height="8" as="geometry" />
        </mxCell>
        <mxCell id="7c5YOl922SR2DBsSBu3k-15" value="«interface»&lt;br&gt;&lt;b&gt;IHp&lt;br&gt;&lt;br&gt;{get} hp : float&amp;nbsp;&lt;br&gt;{get} hpMax : float&lt;br&gt;{get} hpMin : float&lt;br&gt;onHpChanged : Action&amp;lt;float&amp;gt;&lt;br&gt;onHpDecreased : Action&amp;lt;float&amp;gt;&lt;br&gt;onHpIncreased : Action&amp;lt;float&amp;gt;&lt;br&gt;onHpMin : Action&lt;br&gt;onHpMax : Action&lt;br&gt;&lt;/b&gt;" style="html=1;whiteSpace=wrap;" parent="WIyWlLk6GJQsqaUBKTNV-1" vertex="1">
          <mxGeometry x="330" y="950" width="197.5" height="180" as="geometry" />
        </mxCell>
        <mxCell id="7c5YOl922SR2DBsSBu3k-26" value="" style="endArrow=block;endSize=16;endFill=0;html=1;rounded=0;" parent="WIyWlLk6GJQsqaUBKTNV-1" source="7c5YOl922SR2DBsSBu3k-1" target="7c5YOl922SR2DBsSBu3k-15" edge="1">
          <mxGeometry width="160" relative="1" as="geometry">
            <mxPoint x="440" y="1200" as="sourcePoint" />
            <mxPoint x="600" y="1200" as="targetPoint" />
          </mxGeometry>
        </mxCell>
        <mxCell id="7c5YOl922SR2DBsSBu3k-27" value="" style="endArrow=block;endSize=16;endFill=0;html=1;rounded=0;" parent="WIyWlLk6GJQsqaUBKTNV-1" source="7c5YOl922SR2DBsSBu3k-13" target="7c5YOl922SR2DBsSBu3k-15" edge="1">
          <mxGeometry width="160" relative="1" as="geometry">
            <mxPoint x="319" y="1180" as="sourcePoint" />
            <mxPoint x="356" y="1140" as="targetPoint" />
          </mxGeometry>
        </mxCell>
        <mxCell id="7c5YOl922SR2DBsSBu3k-28" value="" style="endArrow=block;endSize=16;endFill=0;html=1;rounded=0;" parent="WIyWlLk6GJQsqaUBKTNV-1" source="7c5YOl922SR2DBsSBu3k-10" target="7c5YOl922SR2DBsSBu3k-1" edge="1">
          <mxGeometry width="160" relative="1" as="geometry">
            <mxPoint x="608" y="1180" as="sourcePoint" />
            <mxPoint x="538" y="1126" as="targetPoint" />
          </mxGeometry>
        </mxCell>
        <mxCell id="7c5YOl922SR2DBsSBu3k-29" value="" style="endArrow=block;endSize=16;endFill=0;html=1;rounded=0;" parent="WIyWlLk6GJQsqaUBKTNV-1" source="7c5YOl922SR2DBsSBu3k-6" target="7c5YOl922SR2DBsSBu3k-1" edge="1">
          <mxGeometry width="160" relative="1" as="geometry">
            <mxPoint x="366" y="1330" as="sourcePoint" />
            <mxPoint x="315" y="1266" as="targetPoint" />
          </mxGeometry>
        </mxCell>
        <mxCell id="7c5YOl922SR2DBsSBu3k-30" value="Box" style="swimlane;fontStyle=1;align=center;verticalAlign=top;childLayout=stackLayout;horizontal=1;startSize=26;horizontalStack=0;resizeParent=1;resizeParentMax=0;resizeLast=0;collapsible=1;marginBottom=0;whiteSpace=wrap;html=1;" parent="WIyWlLk6GJQsqaUBKTNV-1" vertex="1">
          <mxGeometry x="540" y="1256" width="80" height="34" as="geometry" />
        </mxCell>
        <mxCell id="7c5YOl922SR2DBsSBu3k-31" value="" style="line;strokeWidth=1;fillColor=none;align=left;verticalAlign=middle;spacingTop=-1;spacingLeft=3;spacingRight=3;rotatable=0;labelPosition=right;points=[];portConstraint=eastwest;strokeColor=inherit;" parent="7c5YOl922SR2DBsSBu3k-30" vertex="1">
          <mxGeometry y="26" width="80" height="8" as="geometry" />
        </mxCell>
        <mxCell id="7c5YOl922SR2DBsSBu3k-32" value="Rock" style="swimlane;fontStyle=1;align=center;verticalAlign=top;childLayout=stackLayout;horizontal=1;startSize=26;horizontalStack=0;resizeParent=1;resizeParentMax=0;resizeLast=0;collapsible=1;marginBottom=0;whiteSpace=wrap;html=1;" parent="WIyWlLk6GJQsqaUBKTNV-1" vertex="1">
          <mxGeometry x="640" y="1256" width="80" height="34" as="geometry" />
        </mxCell>
        <mxCell id="7c5YOl922SR2DBsSBu3k-33" value="" style="line;strokeWidth=1;fillColor=none;align=left;verticalAlign=middle;spacingTop=-1;spacingLeft=3;spacingRight=3;rotatable=0;labelPosition=right;points=[];portConstraint=eastwest;strokeColor=inherit;" parent="7c5YOl922SR2DBsSBu3k-32" vertex="1">
          <mxGeometry y="26" width="80" height="8" as="geometry" />
        </mxCell>
        <mxCell id="7c5YOl922SR2DBsSBu3k-34" value="" style="endArrow=block;endSize=16;endFill=0;html=1;rounded=0;" parent="WIyWlLk6GJQsqaUBKTNV-1" source="7c5YOl922SR2DBsSBu3k-30" target="7c5YOl922SR2DBsSBu3k-13" edge="1">
          <mxGeometry width="160" relative="1" as="geometry">
            <mxPoint x="366" y="1330" as="sourcePoint" />
            <mxPoint x="315" y="1266" as="targetPoint" />
          </mxGeometry>
        </mxCell>
        <mxCell id="7c5YOl922SR2DBsSBu3k-35" value="" style="endArrow=block;endSize=16;endFill=0;html=1;rounded=0;" parent="WIyWlLk6GJQsqaUBKTNV-1" source="7c5YOl922SR2DBsSBu3k-32" target="7c5YOl922SR2DBsSBu3k-13" edge="1">
          <mxGeometry width="160" relative="1" as="geometry">
            <mxPoint x="559" y="1260" as="sourcePoint" />
            <mxPoint x="611" y="1214" as="targetPoint" />
          </mxGeometry>
        </mxCell>
        <mxCell id="6Y-moqq2wdCGu7MJcteA-0" value="" style="rounded=0;whiteSpace=wrap;html=1;" vertex="1" parent="WIyWlLk6GJQsqaUBKTNV-1">
          <mxGeometry x="120" y="1450" width="340" height="430" as="geometry" />
        </mxCell>
        <mxCell id="6Y-moqq2wdCGu7MJcteA-1" value="CODE" style="rounded=0;whiteSpace=wrap;html=1;" vertex="1" parent="WIyWlLk6GJQsqaUBKTNV-1">
          <mxGeometry x="130" y="1460" width="320" height="60" as="geometry" />
        </mxCell>
        <mxCell id="6Y-moqq2wdCGu7MJcteA-2" value="DATA" style="rounded=0;whiteSpace=wrap;html=1;" vertex="1" parent="WIyWlLk6GJQsqaUBKTNV-1">
          <mxGeometry x="130" y="1530" width="320" height="60" as="geometry" />
        </mxCell>
        <mxCell id="6Y-moqq2wdCGu7MJcteA-3" value="BSS" style="rounded=0;whiteSpace=wrap;html=1;" vertex="1" parent="WIyWlLk6GJQsqaUBKTNV-1">
          <mxGeometry x="130" y="1600" width="320" height="60" as="geometry" />
        </mxCell>
        <mxCell id="6Y-moqq2wdCGu7MJcteA-4" value="HEAP" style="rounded=0;whiteSpace=wrap;html=1;" vertex="1" parent="WIyWlLk6GJQsqaUBKTNV-1">
          <mxGeometry x="130" y="1670" width="320" height="60" as="geometry" />
        </mxCell>
        <mxCell id="6Y-moqq2wdCGu7MJcteA-5" value="STACK" style="rounded=0;whiteSpace=wrap;html=1;" vertex="1" parent="WIyWlLk6GJQsqaUBKTNV-1">
          <mxGeometry x="130" y="1740" width="100" height="130" as="geometry" />
        </mxCell>
        <mxCell id="6Y-moqq2wdCGu7MJcteA-6" value="CPU" style="rounded=0;whiteSpace=wrap;html=1;" vertex="1" parent="WIyWlLk6GJQsqaUBKTNV-1">
          <mxGeometry x="690" y="1600" width="60" height="60" as="geometry" />
        </mxCell>
        <mxCell id="6Y-moqq2wdCGu7MJcteA-8" value="프로그램의 인스턴스&lt;br&gt;를 CPU 가 일련의 과정으로 처리하는것을 Process" style="text;html=1;strokeColor=none;fillColor=none;align=center;verticalAlign=middle;whiteSpace=wrap;rounded=0;" vertex="1" parent="WIyWlLk6GJQsqaUBKTNV-1">
          <mxGeometry x="180" y="1900" width="240" height="70" as="geometry" />
        </mxCell>
        <mxCell id="6Y-moqq2wdCGu7MJcteA-9" value="" style="rounded=0;whiteSpace=wrap;html=1;" vertex="1" parent="WIyWlLk6GJQsqaUBKTNV-1">
          <mxGeometry x="690" y="1710" width="150" height="50" as="geometry" />
        </mxCell>
        <mxCell id="6Y-moqq2wdCGu7MJcteA-10" value="Schedule" style="text;html=1;strokeColor=none;fillColor=none;align=center;verticalAlign=middle;whiteSpace=wrap;rounded=0;" vertex="1" parent="WIyWlLk6GJQsqaUBKTNV-1">
          <mxGeometry x="690" y="1680" width="100" height="30" as="geometry" />
        </mxCell>
        <mxCell id="6Y-moqq2wdCGu7MJcteA-11" value="" style="rounded=0;whiteSpace=wrap;html=1;" vertex="1" parent="WIyWlLk6GJQsqaUBKTNV-1">
          <mxGeometry x="690" y="1710" width="20" height="50" as="geometry" />
        </mxCell>
        <mxCell id="6Y-moqq2wdCGu7MJcteA-12" value="" style="rounded=0;whiteSpace=wrap;html=1;" vertex="1" parent="WIyWlLk6GJQsqaUBKTNV-1">
          <mxGeometry x="710" y="1710" width="20" height="50" as="geometry" />
        </mxCell>
        <mxCell id="6Y-moqq2wdCGu7MJcteA-13" value="" style="rounded=0;whiteSpace=wrap;html=1;" vertex="1" parent="WIyWlLk6GJQsqaUBKTNV-1">
          <mxGeometry x="730" y="1710" width="20" height="50" as="geometry" />
        </mxCell>
        <mxCell id="6Y-moqq2wdCGu7MJcteA-14" value="" style="rounded=0;whiteSpace=wrap;html=1;fillColor=#dae8fc;strokeColor=#6c8ebf;" vertex="1" parent="WIyWlLk6GJQsqaUBKTNV-1">
          <mxGeometry x="750" y="1710" width="20" height="50" as="geometry" />
        </mxCell>
        <mxCell id="6Y-moqq2wdCGu7MJcteA-15" value="" style="rounded=0;whiteSpace=wrap;html=1;fillColor=#dae8fc;strokeColor=#6c8ebf;" vertex="1" parent="WIyWlLk6GJQsqaUBKTNV-1">
          <mxGeometry x="770" y="1710" width="20" height="50" as="geometry" />
        </mxCell>
        <mxCell id="6Y-moqq2wdCGu7MJcteA-16" value="Thread&lt;br&gt;Process 에서 작업 단위" style="text;html=1;strokeColor=none;fillColor=none;align=center;verticalAlign=middle;whiteSpace=wrap;rounded=0;" vertex="1" parent="WIyWlLk6GJQsqaUBKTNV-1">
          <mxGeometry x="120" y="1990" width="150" height="30" as="geometry" />
        </mxCell>
        <mxCell id="6Y-moqq2wdCGu7MJcteA-17" value="STACK" style="rounded=0;whiteSpace=wrap;html=1;" vertex="1" parent="WIyWlLk6GJQsqaUBKTNV-1">
          <mxGeometry x="240" y="1740" width="100" height="130" as="geometry" />
        </mxCell>
        <mxCell id="6Y-moqq2wdCGu7MJcteA-18" value="STACK" style="rounded=0;whiteSpace=wrap;html=1;" vertex="1" parent="WIyWlLk6GJQsqaUBKTNV-1">
          <mxGeometry x="350" y="1740" width="100" height="130" as="geometry" />
        </mxCell>
        <mxCell id="6Y-moqq2wdCGu7MJcteA-19" value="" style="rounded=0;whiteSpace=wrap;html=1;fillColor=#dae8fc;strokeColor=#6c8ebf;" vertex="1" parent="WIyWlLk6GJQsqaUBKTNV-1">
          <mxGeometry x="790" y="1710" width="20" height="50" as="geometry" />
        </mxCell>
        <mxCell id="6Y-moqq2wdCGu7MJcteA-20" value="" style="rounded=0;whiteSpace=wrap;html=1;" vertex="1" parent="WIyWlLk6GJQsqaUBKTNV-1">
          <mxGeometry x="590" y="1910" width="260" height="230" as="geometry" />
        </mxCell>
        <mxCell id="6Y-moqq2wdCGu7MJcteA-22" value="" style="rounded=0;whiteSpace=wrap;html=1;" vertex="1" parent="WIyWlLk6GJQsqaUBKTNV-1">
          <mxGeometry x="650" y="2050" width="120" height="60" as="geometry" />
        </mxCell>
        <mxCell id="6Y-moqq2wdCGu7MJcteA-23" value="Guest" style="shape=umlActor;verticalLabelPosition=bottom;verticalAlign=top;html=1;outlineConnect=0;" vertex="1" parent="WIyWlLk6GJQsqaUBKTNV-1">
          <mxGeometry x="700" y="2090" width="30" height="60" as="geometry" />
        </mxCell>
        <mxCell id="6Y-moqq2wdCGu7MJcteA-24" value="Server1" style="shape=umlActor;verticalLabelPosition=bottom;verticalAlign=top;html=1;outlineConnect=0;" vertex="1" parent="WIyWlLk6GJQsqaUBKTNV-1">
          <mxGeometry x="625" y="1880" width="30" height="60" as="geometry" />
        </mxCell>
        <mxCell id="6Y-moqq2wdCGu7MJcteA-25" value="Server2" style="shape=umlActor;verticalLabelPosition=bottom;verticalAlign=top;html=1;outlineConnect=0;" vertex="1" parent="WIyWlLk6GJQsqaUBKTNV-1">
          <mxGeometry x="725" y="1880" width="30" height="60" as="geometry" />
        </mxCell>
        <mxCell id="6Y-moqq2wdCGu7MJcteA-26" value="Cook1" style="shape=umlActor;verticalLabelPosition=bottom;verticalAlign=top;html=1;outlineConnect=0;" vertex="1" parent="WIyWlLk6GJQsqaUBKTNV-1">
          <mxGeometry x="810" y="1830" width="30" height="60" as="geometry" />
        </mxCell>
        <mxCell id="6Y-moqq2wdCGu7MJcteA-27" value="주문좀요" style="shape=callout;whiteSpace=wrap;html=1;perimeter=calloutPerimeter;" vertex="1" parent="WIyWlLk6GJQsqaUBKTNV-1">
          <mxGeometry x="695" y="2030" width="90" height="60" as="geometry" />
        </mxCell>
        <mxCell id="6Y-moqq2wdCGu7MJcteA-28" value="" style="rounded=0;whiteSpace=wrap;html=1;" vertex="1" parent="WIyWlLk6GJQsqaUBKTNV-1">
          <mxGeometry x="910" y="1910" width="260" height="230" as="geometry" />
        </mxCell>
        <mxCell id="6Y-moqq2wdCGu7MJcteA-29" value="" style="rounded=0;whiteSpace=wrap;html=1;" vertex="1" parent="WIyWlLk6GJQsqaUBKTNV-1">
          <mxGeometry x="970" y="2050" width="120" height="60" as="geometry" />
        </mxCell>
        <mxCell id="6Y-moqq2wdCGu7MJcteA-30" value="Guest" style="shape=umlActor;verticalLabelPosition=bottom;verticalAlign=top;html=1;outlineConnect=0;" vertex="1" parent="WIyWlLk6GJQsqaUBKTNV-1">
          <mxGeometry x="1020" y="2090" width="30" height="60" as="geometry" />
        </mxCell>
        <mxCell id="6Y-moqq2wdCGu7MJcteA-31" value="Server1" style="shape=umlActor;verticalLabelPosition=bottom;verticalAlign=top;html=1;outlineConnect=0;" vertex="1" parent="WIyWlLk6GJQsqaUBKTNV-1">
          <mxGeometry x="970" y="1975" width="30" height="60" as="geometry" />
        </mxCell>
        <mxCell id="6Y-moqq2wdCGu7MJcteA-32" value="Server2" style="shape=umlActor;verticalLabelPosition=bottom;verticalAlign=top;html=1;outlineConnect=0;" vertex="1" parent="WIyWlLk6GJQsqaUBKTNV-1">
          <mxGeometry x="1045" y="1880" width="30" height="60" as="geometry" />
        </mxCell>
        <mxCell id="6Y-moqq2wdCGu7MJcteA-33" value="Cook1" style="shape=umlActor;verticalLabelPosition=bottom;verticalAlign=top;html=1;outlineConnect=0;" vertex="1" parent="WIyWlLk6GJQsqaUBKTNV-1">
          <mxGeometry x="1130" y="1830" width="30" height="60" as="geometry" />
        </mxCell>
        <mxCell id="6Y-moqq2wdCGu7MJcteA-34" value="파스타" style="shape=callout;whiteSpace=wrap;html=1;perimeter=calloutPerimeter;" vertex="1" parent="WIyWlLk6GJQsqaUBKTNV-1">
          <mxGeometry x="1015" y="2030" width="90" height="60" as="geometry" />
        </mxCell>
        <mxCell id="6Y-moqq2wdCGu7MJcteA-35" value="1. 파스타" style="shape=note;whiteSpace=wrap;html=1;backgroundOutline=1;darkOpacity=0.05;size=20;" vertex="1" parent="WIyWlLk6GJQsqaUBKTNV-1">
          <mxGeometry x="932.5" y="1880" width="57.5" height="80" as="geometry" />
        </mxCell>
        <mxCell id="6Y-moqq2wdCGu7MJcteA-36" value="" style="rounded=0;whiteSpace=wrap;html=1;" vertex="1" parent="WIyWlLk6GJQsqaUBKTNV-1">
          <mxGeometry x="1220" y="1910" width="260" height="230" as="geometry" />
        </mxCell>
        <mxCell id="6Y-moqq2wdCGu7MJcteA-37" value="" style="rounded=0;whiteSpace=wrap;html=1;" vertex="1" parent="WIyWlLk6GJQsqaUBKTNV-1">
          <mxGeometry x="1280" y="2050" width="120" height="60" as="geometry" />
        </mxCell>
        <mxCell id="6Y-moqq2wdCGu7MJcteA-38" value="Guest" style="shape=umlActor;verticalLabelPosition=bottom;verticalAlign=top;html=1;outlineConnect=0;" vertex="1" parent="WIyWlLk6GJQsqaUBKTNV-1">
          <mxGeometry x="1330" y="2090" width="30" height="60" as="geometry" />
        </mxCell>
        <mxCell id="6Y-moqq2wdCGu7MJcteA-39" value="Server1" style="shape=umlActor;verticalLabelPosition=bottom;verticalAlign=top;html=1;outlineConnect=0;" vertex="1" parent="WIyWlLk6GJQsqaUBKTNV-1">
          <mxGeometry x="1280" y="1975" width="30" height="60" as="geometry" />
        </mxCell>
        <mxCell id="6Y-moqq2wdCGu7MJcteA-40" value="Server2" style="shape=umlActor;verticalLabelPosition=bottom;verticalAlign=top;html=1;outlineConnect=0;" vertex="1" parent="WIyWlLk6GJQsqaUBKTNV-1">
          <mxGeometry x="1355" y="1975" width="30" height="60" as="geometry" />
        </mxCell>
        <mxCell id="6Y-moqq2wdCGu7MJcteA-41" value="Cook1" style="shape=umlActor;verticalLabelPosition=bottom;verticalAlign=top;html=1;outlineConnect=0;" vertex="1" parent="WIyWlLk6GJQsqaUBKTNV-1">
          <mxGeometry x="1440" y="1830" width="30" height="60" as="geometry" />
        </mxCell>
        <mxCell id="6Y-moqq2wdCGu7MJcteA-42" value="스파게티" style="shape=callout;whiteSpace=wrap;html=1;perimeter=calloutPerimeter;" vertex="1" parent="WIyWlLk6GJQsqaUBKTNV-1">
          <mxGeometry x="1355" y="2060" width="90" height="60" as="geometry" />
        </mxCell>
        <mxCell id="6Y-moqq2wdCGu7MJcteA-43" value="1. 파스타&lt;br&gt;2. 스파게티" style="shape=note;whiteSpace=wrap;html=1;backgroundOutline=1;darkOpacity=0.05;size=20;" vertex="1" parent="WIyWlLk6GJQsqaUBKTNV-1">
          <mxGeometry x="1230" y="1880" width="70" height="80" as="geometry" />
        </mxCell>
        <mxCell id="6Y-moqq2wdCGu7MJcteA-44" value="1. 스파게티" style="shape=note;whiteSpace=wrap;html=1;backgroundOutline=1;darkOpacity=0.05;size=20;" vertex="1" parent="WIyWlLk6GJQsqaUBKTNV-1">
          <mxGeometry x="1335" y="1880" width="70" height="80" as="geometry" />
        </mxCell>
        <mxCell id="6Y-moqq2wdCGu7MJcteA-45" value="" style="rounded=0;whiteSpace=wrap;html=1;" vertex="1" parent="WIyWlLk6GJQsqaUBKTNV-1">
          <mxGeometry x="1510" y="1910" width="260" height="230" as="geometry" />
        </mxCell>
        <mxCell id="6Y-moqq2wdCGu7MJcteA-46" value="" style="rounded=0;whiteSpace=wrap;html=1;" vertex="1" parent="WIyWlLk6GJQsqaUBKTNV-1">
          <mxGeometry x="1570" y="2050" width="120" height="60" as="geometry" />
        </mxCell>
        <mxCell id="6Y-moqq2wdCGu7MJcteA-47" value="Guest" style="shape=umlActor;verticalLabelPosition=bottom;verticalAlign=top;html=1;outlineConnect=0;" vertex="1" parent="WIyWlLk6GJQsqaUBKTNV-1">
          <mxGeometry x="1620" y="2090" width="30" height="60" as="geometry" />
        </mxCell>
        <mxCell id="6Y-moqq2wdCGu7MJcteA-48" value="Server1" style="shape=umlActor;verticalLabelPosition=bottom;verticalAlign=top;html=1;outlineConnect=0;" vertex="1" parent="WIyWlLk6GJQsqaUBKTNV-1">
          <mxGeometry x="1665" y="1785" width="30" height="60" as="geometry" />
        </mxCell>
        <mxCell id="6Y-moqq2wdCGu7MJcteA-49" value="Server2" style="shape=umlActor;verticalLabelPosition=bottom;verticalAlign=top;html=1;outlineConnect=0;" vertex="1" parent="WIyWlLk6GJQsqaUBKTNV-1">
          <mxGeometry x="1645" y="1975" width="30" height="60" as="geometry" />
        </mxCell>
        <mxCell id="6Y-moqq2wdCGu7MJcteA-50" value="Cook1" style="shape=umlActor;verticalLabelPosition=bottom;verticalAlign=top;html=1;outlineConnect=0;" vertex="1" parent="WIyWlLk6GJQsqaUBKTNV-1">
          <mxGeometry x="1730" y="1830" width="30" height="60" as="geometry" />
        </mxCell>
        <mxCell id="6Y-moqq2wdCGu7MJcteA-51" value="주문끝" style="shape=callout;whiteSpace=wrap;html=1;perimeter=calloutPerimeter;" vertex="1" parent="WIyWlLk6GJQsqaUBKTNV-1">
          <mxGeometry x="1645" y="2060" width="90" height="60" as="geometry" />
        </mxCell>
        <mxCell id="6Y-moqq2wdCGu7MJcteA-52" value="1. 파스타&lt;br&gt;2. 스파게티" style="shape=note;whiteSpace=wrap;html=1;backgroundOutline=1;darkOpacity=0.05;size=20;" vertex="1" parent="WIyWlLk6GJQsqaUBKTNV-1">
          <mxGeometry x="1720" y="1730" width="70" height="80" as="geometry" />
        </mxCell>
        <mxCell id="6Y-moqq2wdCGu7MJcteA-53" value="1. 스파게티" style="shape=note;whiteSpace=wrap;html=1;backgroundOutline=1;darkOpacity=0.05;size=20;" vertex="1" parent="WIyWlLk6GJQsqaUBKTNV-1">
          <mxGeometry x="1625" y="1880" width="70" height="80" as="geometry" />
        </mxCell>
        <mxCell id="6Y-moqq2wdCGu7MJcteA-54" value="" style="rounded=0;whiteSpace=wrap;html=1;" vertex="1" parent="WIyWlLk6GJQsqaUBKTNV-1">
          <mxGeometry x="1808" y="1910" width="260" height="230" as="geometry" />
        </mxCell>
        <mxCell id="6Y-moqq2wdCGu7MJcteA-55" value="" style="rounded=0;whiteSpace=wrap;html=1;" vertex="1" parent="WIyWlLk6GJQsqaUBKTNV-1">
          <mxGeometry x="1868" y="2050" width="120" height="60" as="geometry" />
        </mxCell>
        <mxCell id="6Y-moqq2wdCGu7MJcteA-56" value="Guest" style="shape=umlActor;verticalLabelPosition=bottom;verticalAlign=top;html=1;outlineConnect=0;" vertex="1" parent="WIyWlLk6GJQsqaUBKTNV-1">
          <mxGeometry x="1918" y="2090" width="30" height="60" as="geometry" />
        </mxCell>
        <mxCell id="6Y-moqq2wdCGu7MJcteA-58" value="Server2" style="shape=umlActor;verticalLabelPosition=bottom;verticalAlign=top;html=1;outlineConnect=0;" vertex="1" parent="WIyWlLk6GJQsqaUBKTNV-1">
          <mxGeometry x="1958" y="1795" width="30" height="60" as="geometry" />
        </mxCell>
        <mxCell id="6Y-moqq2wdCGu7MJcteA-59" value="Cook1" style="shape=umlActor;verticalLabelPosition=bottom;verticalAlign=top;html=1;outlineConnect=0;" vertex="1" parent="WIyWlLk6GJQsqaUBKTNV-1">
          <mxGeometry x="2028" y="1830" width="30" height="60" as="geometry" />
        </mxCell>
        <mxCell id="6Y-moqq2wdCGu7MJcteA-60" value="주문끝" style="shape=callout;whiteSpace=wrap;html=1;perimeter=calloutPerimeter;" vertex="1" parent="WIyWlLk6GJQsqaUBKTNV-1">
          <mxGeometry x="1943" y="2060" width="90" height="60" as="geometry" />
        </mxCell>
        <mxCell id="6Y-moqq2wdCGu7MJcteA-61" value="1. 파스타&lt;br&gt;2. 스파게티" style="shape=note;whiteSpace=wrap;html=1;backgroundOutline=1;darkOpacity=0.05;size=20;" vertex="1" parent="WIyWlLk6GJQsqaUBKTNV-1">
          <mxGeometry x="2018" y="1730" width="70" height="80" as="geometry" />
        </mxCell>
        <mxCell id="6Y-moqq2wdCGu7MJcteA-62" value="1. 스파게티" style="shape=note;whiteSpace=wrap;html=1;backgroundOutline=1;darkOpacity=0.05;size=20;" vertex="1" parent="WIyWlLk6GJQsqaUBKTNV-1">
          <mxGeometry x="2018" y="1730" width="70" height="80" as="geometry" />
        </mxCell>
        <mxCell id="6Y-moqq2wdCGu7MJcteA-63" value="RaceCondition (경합조건)&lt;br&gt;&lt;br&gt;하나의 자원을 두고 여러 스레드 (프로세스) 가 경합하는 조건&amp;nbsp;&lt;br&gt;이 조건일때는 입력에 따른 결과가 예측과 달라질 수 있는 위험이 있다." style="text;html=1;strokeColor=none;fillColor=none;align=center;verticalAlign=middle;whiteSpace=wrap;rounded=0;" vertex="1" parent="WIyWlLk6GJQsqaUBKTNV-1">
          <mxGeometry x="660" y="2210" width="440" height="80" as="geometry" />
        </mxCell>
      </root>
    </mxGraphModel>
  </diagram>
</mxfile>
